<svg id="illustration" xmlns="http://www.w3.org/2000/svg" xmlns:xlink="http://www.w3.org/1999/xlink" viewBox="0 0 400 400"><defs><style>.cls-1{fill:none;}.cls-2,.cls-7{fill:#755800;}.cls-3,.cls-5,.cls-6,.cls-7,.cls-8{fill-rule:evenodd;}.cls-3{opacity:0.1;}.cls-4,.cls-8{fill:#c3987b;}.cls-13,.cls-5{fill:#dfbda5;}.cls-6,.cls-9{fill:#856400;}.cls-10{fill:#8d7c2f;}.cls-11{fill:#ac923c;}.cls-12{fill:#ccad14;}.cls-14{fill:#e8cab6;}.cls-15{fill:#8b6651;}.cls-16{fill:#fff;}.cls-17{fill:#2b2b2b;}.cls-18{clip-path:url(#clip-path);}.cls-19{fill:#9e7700;}.cls-20{clip-path:url(#clip-path-2);}.cls-21{fill:#e2a942;}.cls-22{fill:#f2bd68;}.cls-23{fill:#e5e5e4;}.cls-24{fill:#f4d75d;}</style><clipPath id="clip-path"><polygon class="cls-1" points="203.52 273.03 199.19 328.59 146.6 329.87 148.74 245 203.52 273.03"/></clipPath><clipPath id="clip-path-2"><polygon class="cls-1" points="203.52 273.03 211.24 327.94 255.37 325.66 249.17 256.14 203.52 273.03"/></clipPath></defs><polygon class="cls-2" points="203.52 273.03 247.05 257.07 148.74 245 203.52 273.03"/><polygon class="cls-3" points="48.71 385.22 210.3 400 312.04 379.25 196.91 361.81 48.71 385.22"/><polygon class="cls-4" points="170.25 293.68 156.91 322.94 163.35 361.31 180.18 361.81 190.29 329.61 170.25 293.68"/><polygon class="cls-4" points="235.55 287.96 248.34 312.81 246.66 353.02 224.46 357.91 215.09 324.45 235.55 287.96"/><polygon class="cls-5" points="180.18 361.81 183.48 370.64 182.14 374.62 185.28 375.48 189.21 386.01 154.56 387.16 157.03 375.36 159.67 374.15 159.16 370.63 163.35 361.31 180.18 361.81"/><polygon class="cls-6" points="183.48 370.64 185.28 375.48 175.46 386.42 165.91 386.7 157.03 375.36 159.16 370.63 170.28 379.1 183.48 370.64"/><polygon class="cls-5" points="246.66 353.02 260.92 366.73 260.31 369.4 264.34 369.13 278.24 378.89 226.13 377.02 224.46 357.91 246.66 353.02"/><path class="cls-6" d="M260.92,366.73l3.42,2.4-8.65,8.95-17.53-.63c5.47-2.63,16.94-8,22.76-10.72"/><path class="cls-7" d="M280.92,376.83l-57.56-1.4.09,6.45,57.08.74s.15-5.79.39-5.79"/><polyline class="cls-7" points="149.6 391.05 192.27 391.05 192.27 384.33 149.05 384.7 149.6 391.05"/><polyline class="cls-8" points="278.24 368.63 275.11 376.69 257.44 376.26 264.34 369.13 278.24 368.63"/><polygon class="cls-8" points="177.22 384.45 192.27 384.33 185.28 375.48 177.22 384.45"/><polygon class="cls-8" points="157.03 375.36 152.84 384.67 164.31 384.67 157.03 375.36"/><polygon class="cls-9" points="203.52 273.03 199.19 328.59 146.6 329.87 148.74 245 203.52 273.03"/><polygon class="cls-9" points="203.52 273.03 211.24 327.94 255.37 325.66 247.05 257.07 203.52 273.03"/><polygon class="cls-10" points="242.19 23.24 235.41 9.59 210.83 7.52 214.75 13.2 232.66 26.75 239.51 31.77 242.19 23.24"/><polygon class="cls-10" points="236.51 30.55 242.19 23.24 256.99 31.68 245.72 41.81 236.51 30.55"/><polygon class="cls-11" points="246.54 38.3 240.19 65.4 254.56 61.38 256.99 31.68 246.54 38.3"/><polygon class="cls-12" points="242.94 59.21 256.91 87.77 267.61 83.3 254.56 61.38 242.94 59.21"/><polygon class="cls-11" points="257.91 83.3 251.06 108.22 260.58 106.55 267.61 83.3 257.91 83.3"/><polygon class="cls-12" points="252.89 105.72 255.28 121.62 273.63 118.28 260.58 106.55 252.89 105.72"/><polygon class="cls-10" points="257.91 118.28 233.83 142.87 251.06 144.16 273.63 118.28 257.91 118.28"/><polygon class="cls-12" points="240.19 140.74 232.57 157.37 244.19 170.47 251.06 144.16 240.19 140.74"/><polygon class="cls-11" points="257.91 118.28 240.19 140.74 224.96 140.74 233.83 125.95 240.19 113.58 257.91 118.28"/><polygon class="cls-11" points="240.19 140.74 235.79 157.37 226.01 157 224.96 147.72 228.81 137.69 240.19 140.74"/><polygon class="cls-10" points="228.81 137.69 208.14 140.74 217.69 126.29 233.83 125.95 228.81 137.69"/><polygon class="cls-10" points="228.81 137.69 226.01 157 205.93 147.72 210.41 133.57 228.81 137.69"/><polygon class="cls-11" points="252.89 105.72 257.91 118.28 240.19 120.6 242.94 100.03 252.89 105.72"/><polygon class="cls-10" points="257.91 83.3 252.89 105.72 244.2 104.67 239.75 80.69 257.91 83.3"/><polygon class="cls-11" points="242.94 59.21 257.91 83.3 242.94 84.68 240.19 71.67 242.94 59.21"/><polygon class="cls-10" points="246.54 38.3 242.94 59.21 236.84 68.8 233.55 30.26 246.54 38.3"/><polygon class="cls-13" points="212.96 144.18 213.74 202.84 181.64 160.1 170.25 136.35 212.96 144.18"/><polygon class="cls-13" points="236.84 33.61 251.72 122.56 219.78 131 204.05 147.72 176.28 140.34 160.22 112.57 157.88 76.1 164.58 47.55 168.59 36.96 199.37 16.21 219.11 15.55 236.84 33.61"/><polygon class="cls-4" points="164.58 47.54 194.85 137.85 219.78 131 204.55 151.4 176.7 140.18 155.87 116.59 154.54 74.1 164.58 47.54"/><polygon class="cls-4" points="187.16 64.38 200.85 67.99 217.1 83.13 233.27 59.65 236.51 54.34 226.69 52.34 217.5 54.28 217.77 56.69 210.41 58.36 206.06 52.84 194.01 52.34 187.16 64.38"/><polygon class="cls-14" points="210.41 58.36 217.1 83.13 224.96 81.29 217.77 56.69 210.41 58.36"/><polygon class="cls-15" points="217.1 83.13 221.92 87.36 224.96 81.29 217.1 83.13"/><polygon class="cls-15" points="236.51 93.62 199.53 97.64 212.42 112.7 233.83 108.35 236.51 93.62"/><polygon class="cls-4" points="221.53 18.01 196.69 13.71 165.45 39.63 157.88 76.1 176.28 49.34 189.03 41.81 188.66 35.54 197.36 15.21 210.41 16.82 221.03 34.95 236.84 33.61 221.53 18.01"/><polygon class="cls-16" points="233.83 96.47 232.82 102.66 210.41 106.85 204.55 99.81 233.83 96.47"/><circle class="cls-17" cx="200.17" cy="67.99" r="3.85"/><circle class="cls-17" cx="227.81" cy="64.14" r="3.85"/><polygon class="cls-15" points="219.78 131 176.7 140.18 208.48 155.94 212.96 144.18 219.78 131"/><polygon class="cls-4" points="167.08 91.24 153.02 118.87 165.45 125.95 167.08 91.24"/><polygon class="cls-10" points="206.06 52.84 202.38 48.77 190.58 53.17 187.16 64.38 195.52 55.35 206.06 52.84"/><polygon class="cls-10" points="217.5 54.28 216.88 48.77 229.94 50.4 236.51 54.34 226.3 53.26 217.5 54.28"/><polygon class="cls-10" points="187.16 5.84 168.58 3.5 149.27 15.41 154.54 32.52 187.16 5.84"/><polygon class="cls-11" points="149.27 15.41 141.45 30.77 141.14 38.3 149.66 40.97 155.87 25.75 149.27 15.41"/><polygon class="cls-12" points="141.45 30.77 149.27 37.79 144.82 54.46 128.09 43.87 141.45 30.77"/><polygon class="cls-11" points="128.09 43.87 125.75 75.18 144.82 81.29 142.48 50.17 128.09 43.87"/><polygon class="cls-10" points="125.75 75.18 132.78 92.5 148.5 98.52 141.14 75.18 125.75 75.18"/><polygon class="cls-12" points="132.78 92.5 118.48 118.6 137.77 119.87 144.82 93.01 132.78 92.5"/><polygon class="cls-10" points="118.48 118.6 128.28 141.22 153.89 151 135.79 115.33 118.48 118.6"/><polygon class="cls-11" points="128.28 141.22 131.55 155.13 151.6 160.77 148.14 143.69 128.28 141.22"/><polygon class="cls-11" points="187.16 5.84 155.87 25.75 161.19 39.63 182.88 27.33 196.69 11.7 187.16 5.84"/><polygon class="cls-10" points="162.06 31.77 155.87 25.75 142.48 50.17 141.14 75.18 154.73 80.29 162.06 31.77"/><polygon class="cls-11" points="141.14 75.18 144.82 93.01 158.17 95.76 149.27 75.18 141.14 75.18"/><polygon class="cls-10" points="144.82 93.01 135.79 115.33 152.32 124.28 155.14 93.36 144.82 93.01"/><polygon class="cls-11" points="135.79 115.33 148.14 143.69 171.98 154.1 149.27 118.09 135.79 115.33"/><polygon class="cls-10" points="148.14 143.69 151.6 160.77 161.19 167.81 170.25 154.75 165.86 144.82 148.14 143.69"/><polygon class="cls-12" points="192.68 11.7 187.16 5.84 205.96 1 212.19 7.62 209.23 12.83 192.68 11.7"/><polygon class="cls-10" points="192.68 11.7 212.19 7.62 223.21 21.9 199.37 16.21 194.68 17.42 192.68 11.7"/><polygon class="cls-12" points="212.19 7.62 242.19 23.24 246.54 38.3 224.96 29.6 212.19 7.62"/><polygon class="cls-12" points="199.37 16.21 192.68 11.7 179.63 25.75 162.06 31.77 165.45 39.63 173.1 41.81 188.66 35.54 199.37 16.21"/><polygon class="cls-11" points="162.06 31.77 149.27 75.18 154.73 80.29 157.88 76.1 173.1 41.81 162.06 31.77"/><polygon class="cls-12" points="149.27 75.18 155.14 93.36 161.19 95.76 167.08 91.24 157.88 76.1 149.27 75.18"/><polygon class="cls-11" points="155.14 93.36 149.27 118.09 157.88 119.87 159.55 115.33 167.08 91.24 155.14 93.36"/><polygon class="cls-12" points="159.55 115.33 174.19 132.73 182.49 161.6 161.19 167.81 165.86 144.82 149.27 118.09 159.55 115.33"/><polygon class="cls-11" points="165.86 144.82 182.49 161.6 161.19 167.81 165.86 144.82"/><g class="cls-18"><polygon class="cls-19" points="157.06 236.05 148.74 344.08 153.65 345.13 169.34 241.18 157.06 236.05"/><polygon class="cls-19" points="160.88 340.04 178.58 241.34 185.82 244.13 170.26 336.48 160.88 340.04"/><polygon class="cls-19" points="175.56 341.28 193.26 242.58 200.5 245.37 184.94 337.72 175.56 341.28"/></g><g class="cls-20"><polygon class="cls-19" points="224.97 345.36 200.78 227.55 210.47 225.88 233.75 346.63 224.97 345.36"/><polygon class="cls-19" points="217.26 227.92 239.07 342.06 245.17 343.2 227.24 225.44 217.26 227.92"/><polygon class="cls-19" points="227.78 221.16 249.59 335.29 255.69 336.43 237.76 218.67 227.78 221.16"/></g><polygon class="cls-21" points="212.96 144.18 237.06 155.3 237.6 205.18 240.6 231.63 249.17 256.14 213.92 264.41 210.12 242.03 210.12 242.03 200.76 191.68 203.4 176.84 205.52 162.96 212.96 144.18"/><polygon class="cls-22" points="203.4 176.84 197.38 165.1 181.96 164.36 165.76 145.66 133.11 148.73 148.14 193.62 151.6 221.95 144.97 248.74 201.28 275.74 214.92 264.41 203.4 176.84"/><polygon class="cls-22" points="212.96 144.18 222.02 148.36 222.51 177.82 205.52 162.96 212.96 144.18"/><polygon class="cls-21" points="197.38 165.1 189.33 185.88 151.84 146.97 165.86 144.82 183.69 156.63 197.38 165.1"/><polygon class="cls-21" points="148.14 193.62 119.91 197.49 107.41 158.65 133.11 148.73 148.14 193.62"/><polygon class="cls-23" points="117.69 59.04 88.29 23.65 62.58 61.8 53.2 133.31 65.1 301.25 93.53 371.32 105.67 370.71 117.82 370.1 139.1 297.54 134.16 129.26 117.69 59.04"/><rect class="cls-2" x="95.48" y="23.44" width="3" height="347.49" transform="translate(-9.74 5.1) rotate(-2.87)"/><path class="cls-19" d="M122.28,47.61,87.65,10.77,57,51.88l-11.5,76.84L58.63,309l33.29,75.08,14.39-.72,14.4-.72,25.61-78-4.91-181.68ZM139.1,297.54,117.82,370.1l-12.15.61-12.14.61L65.1,301.25,53.2,133.31,62.58,61.8,88.29,23.65,117.69,59l16.47,70.22Z"/><polygon class="cls-4" points="49.77 188.81 64.52 194.4 63.06 211.5 52.07 220.04 49.77 188.81"/><polygon class="cls-14" points="49.77 188.81 43.79 194.88 44.8 214.89 52.07 220.04 49.77 188.81"/><polygon class="cls-24" points="120.48 209.43 117.13 199.73 114.49 209.43 105.67 207.84 111.31 214.54 106.55 221.95 116.43 218.46 126.48 221.95 121.89 215.42 129.11 210.84 120.48 209.43"/><polygon class="cls-24" points="117.94 157.24 114.59 147.54 111.95 157.24 103.13 155.65 108.77 162.35 104.01 169.76 113.89 166.27 123.94 169.76 119.35 163.23 126.57 158.65 117.94 157.24"/><polygon class="cls-24" points="115.04 105.36 111.69 95.66 109.04 105.36 100.22 103.77 105.87 110.47 101.11 117.88 110.98 114.39 121.03 117.88 116.45 111.35 123.67 106.77 115.04 105.36"/><polygon class="cls-24" points="122.22 266.77 118.87 257.07 116.23 266.77 107.41 265.18 113.05 271.88 108.29 279.29 118.17 275.8 128.22 279.29 123.63 272.76 130.85 268.18 122.22 266.77"/><polygon class="cls-4" points="239.42 265.69 250.19 245.02 253.97 252.78 251.31 261.77 244.32 268.95 239.42 265.69"/><polygon class="cls-4" points="254.96 280.49 268.25 281.24 274.4 269.73 259.03 261.85 251.25 267.56 254.96 280.49"/><polygon class="cls-13" points="268.2 246.5 274.4 269.73 251.25 267.56 250.19 245.02 261.16 242.56 268.2 246.5"/><polygon class="cls-13" points="239.94 211.55 248.98 237.28 258.59 241.89 265.94 237.49 262.94 213.37 239.94 211.55"/><polygon class="cls-2" points="247.05 236.89 262.46 237.05 265.65 242.76 262.36 247.6 248.57 246.65 247.05 236.89"/><polygon class="cls-19" points="262.46 237.05 262.36 247.6 271.27 248.5 272.2 237.15 262.46 237.05"/><polygon class="cls-4" points="239.94 211.55 237.6 205.18 260.93 197.18 262.94 213.37 239.94 211.55"/><polygon class="cls-22" points="237.06 155.3 241.44 157.37 265.25 196.6 237.6 205.18 237.06 155.3"/></svg>