<svg xmlns="http://www.w3.org/2000/svg" fill="none" viewBox="0 0 285 270"><mask id="mask0_1785:34523" width="285" height="270" x="0" y="0" maskUnits="userSpaceOnUse" style="mask-type:alpha"><path fill="#F7F1E8" d="M183.203 4.236c-1.557-.515-3.089-1.021-4.622-1.49 6.996 1.459 14.126 3.353 20.954 5.848-.246.023-.484.055-.722.078-1.525.171-2.708.304-3.264-.14a531 531 0 0 0-8.583-3.072 264 264 0 0 1-3.763-1.224m68.879 51.018c-1.302-1.77-2.731-3.462-4.161-5.161v-.008l-.254-.304c-1.341-1.606-2.683-3.22-4.128-4.763 1.056 2.003 1.635 4.03 1.683 5.91 2.469 1.239 4.804 2.634 6.86 4.326m16.722 163.883c-.469.873-.874 1.629-1.041 2.237-6.82 6.518-13.625 10.884-20.477 14.751-.174.366-.333.904-.516 1.52-.492 1.661-1.167 3.953-2.85 5.395-.89.639-1.779 1.271-2.652 1.894a466 466 0 0 0-4.637 3.337c-1.199.811-2.374 1.63-3.541 2.448-1.223.85-2.438 1.7-3.661 2.526 9.393-5.348 17.968-11.585 25.813-18.609a150 150 0 0 0 20.922-23.139c-1.779 1.161-3.565 2.159-5.375 2.923-.429 1.817-1.279 3.407-1.985 4.717m13.442-72.621c.072 8.825-.31 17.642-.73 26.476l-.707-.032h.016l.691.032c-.278 5.784-3.367 10.431-6.861 14.641q-.25.582-.5 1.154v.007c-.167.375-.333.749-.492 1.131-.405 8.825-5.407 15.475-10.568 21.806l-.072.093c-.182.25-.373.499-.556.756v.008l-.539-.39-.032-.023.571.405v.008l-.563-.405.571.405c-.619.842-1.246 1.692-1.881 2.526l-.096.14c-1.548 2.308-3.001 4.717-4.462 7.142l-.611-.351.595.366c-5.907 9.808-11.965 19.904-25.122 23.397l-.183-.671.183.671h-.008c-.738.187-1.516.21-2.191.226-.223.007-.429.015-.635.023-.731.569-1.461 1.138-2.2 1.707l-.437-.545.437.545q-.655.506-1.31 1.022l.334.101-1.398.733-.286.226-.087-.023c-1.398.732-2.771 1.512-4.161 2.299-4.351 2.464-8.813 4.998-13.958 6.136-27.52 12.645-56.493 13.043-85.514 8.677l.072-.452.039-.234-.111.686c-2.493-.374-5.034-.585-7.622-.795-6.162-.507-12.537-1.021-18.405-3.945a78 78 0 0 0-1.77-.499l-.017-.008-.016-.007.215-.663-.215.663-2.842-.889-.159-.055-.119-.117.5-.491-.5.491a64 64 0 0 0-1.032-.966c-.675-.624-1.39-1.279-1.985-1.965a8.4 8.4 0 0 1-1.009-1.411c-.222-.086-.452-.179-.674-.265q-.892-.349-1.771-.686-1.047-.398-2.056-.795c-1.247-.515-2.47-.998-3.66-1.466l-.088.249c-9.37-4.342-18.373-9.69-26.623-16.146a29.6 29.6 0 0 1-2.31-4.903c-1.652-.39-3.057-1.185-4.217-1.84-.778-.437-1.437-.811-1.993-.959-4.303-4.842-7.431-9.613-10.075-14.392a62 62 0 0 1-3.955-4.693c-1.476-.452-3.318-1.115-4.454-2.518-.643-.897-1.247-1.817-1.85-2.729a35 35 0 0 0-.381-.569c-.738-1.092-1.477-2.175-2.207-3.251-.834-1.279-1.668-2.542-2.493-3.797l-.024-.039-.008-.015c-.572-.866-1.136-1.731-1.7-2.589-.253-.514-.515-1.029-.77-1.551q-.606-1.228-1.222-2.456L11 188.857l-.905-2.066q-.881-2.072-1.763-4.156c-.548-1.403-1.056-2.83-1.572-4.256-3.359-9.613-5.502-19.491-6.32-29.322a121.2 121.2 0 0 1 1.016-29.04c.945-.562 2.088-.647 3.24-.733h.031c-.706-1.474-.587-3.228-.444-4.92l.047-.499c.072-.678.135-1.34.175-1.98.064-.787.095-1.528-.032-2.206.318.546.739.904 1.366.904-.199-2.159-.159-3.874.087-5.317.27-1.442.7-2.619 1.215-3.757a36 36 0 0 1 .826-1.684q.285-.527.595-1.076c.12-.219.247-.445.374-.67A39 39 0 0 0 11 93.711c.238-.927.127-1.925.016-2.923-.088-.756-.175-1.528-.111-2.269a29 29 0 0 1 .786-1.668 22 22 0 0 0 .301-.616c1.938-1.63 3.39-3.353 4.749-5.107 1.27-1.691 2.247-3.492 3.24-5.309l.118-.218c.5-.959.969-1.918 1.421-2.916.239-.514.493-1.021.739-1.528.238-.475.468-.951.699-1.442.103-.203.198-.413.301-.616.39-.795.779-1.606 1.191-2.41a77 77 0 0 1 1.723-2.993c5.836-7.406 12.474-14.033 19.715-19.685a22 22 0 0 1 4.066-2.542c1.27-.616 2.564-.95 3.763-1.247.19-.047.373-.078.556-.117 1.818-2.503 4.335-4.296 6.725-5.995 1.263-.897 2.485-1.762 3.597-2.713l.453.514-.453-.514c7.718-6.55 15.928-12.56 24.09-18.54l.413.546.008.008-.421-.554c.603-.436 1.199-.88 1.802-1.317 7.273-5.333 16.055-6.76 24.471-8.132l.048-.007.111.686-.111-.686c4.423-.71 8.901-1.053 13.347-1.388a347 347 0 0 0 5.788-.476l.231-.046c20.834-4.522 39.922 2.058 58.748 8.77 1.326.468 2.62 1.014 3.898 1.552h.008q.952.41 1.906.795l-.294.647.27-.64.381.157.008.093q1.987 1.041 3.986 2.082l-.334.616.334-.616h.008c16.261 8.435 32.784 16.988 41.685 35.044l-1.064.857.429-.553-.429.553c-1.461-1.084-2.914-2.175-4.359-3.259-5.908-4.436-11.775-8.833-17.929-12.598 25.543 20.956 41.82 52.445 41.82 87.597 0 6.962-.643 13.784-1.866 20.411.85-.375 1.969-1.349 3.24-2.706.286-.311.571-.654.865-1.013a97 97 0 0 0-.159-7.266v-.039a40620 40620 0 0 1-5.169-43.682c-.127-.093-.246-.187-.381-.288-.635-.468-1.421-1.037-1.889-1.81-.477-.787-.588-1.714-.175-2.83a12 12 0 0 0-.278-.888c-.262-.787-.588-1.73-.54-2.658a3.13 3.13 0 0 1 .627-1.747 1.23 1.23 0 0 1-.547-.834c-.056-.35.023-.702.119-.982a.3.3 0 0 1 .031-.07c-.079-.016-.166-.04-.246-.055l-.286.359-.547-.71.563-.42-.563.42c-3.097-4.023-5.527-8.568-4.447-13.986.207-1.037.516-1.965.945-2.713.421-.74.985-1.349 1.715-1.653 1.548-.64 3.248.226 4.923 2.152 7.114 8.194 12.323 17.409 13.815 28.37.747 5.496 2.128 10.868 3.526 16.286v.024l-.683.171h.008-.008l.683-.171c1.024 3.96 2.048 7.944 2.826 11.998a32.7 32.7 0 0 0 1.628-5.138c.572-2.479 1.009-5.098 1.12-7.812 1.905 14.306 1.913 28.87-.048 43.207M134.491 2.17h.008zm138.902 119.367c-.119-2.674-.611-5.161-2.787-6.666q-.344 2.562-.675 5.122c.54 1.061.874 2.16.874 3.275 0 1.13-.35 2.237-1.08 3.313-.04 1.957-.096 3.929-.151 5.894.135.405.254.811.357 1.208.032-.039.056-.078.087-.124l.016-.024.008-.008c.143-.218.294-.428.437-.639.191-.281.381-.553.564-.834a259 259 0 0 1 2.445-3.516c.04-2.323 0-4.662-.095-7.001m.683-.031h.024zM34.598 72.07l.135.07.031.016-.143-.07zm244.25 44.29.055-.008.612-.109zM258.99 59.815l-.167.14zm7.217 72.099h.024-.032zM203.013 15.462l-.056.094zm-.048.094.072-.125.039-.07zm-10.06-4.756-.047.117zM28.445 82.174c-.056.257-.096.515-.152.764 1.97-3.68 3.907-7.383 5.844-11.094l.627.312-.627-.32c1.088-2.081 2.176-4.17 3.264-6.252-.088-.523-.048-1.03.222-1.481.254-.421.643-.694 1.096-.881.317-.858.635-1.715.944-2.58l-.119.015c-.158.195-.317.397-.476.592-.66.834-1.27 1.707-1.89 2.58l-.476.679-1.144 1.645c-.277.429-.54.873-.81 1.31-.079.132-.158.257-.238.39a88 88 0 0 0-1.977 3.445 81 81 0 0 0-1.675 3.563c-.54 1.185-.977 2.41-1.382 3.626-.04.124-.079.257-.119.382-.325 1.099-.667 2.182-.913 3.305m59.494 177.02.015-.016zM282.73 139.289c.056-1.232.104-2.44.072-3.626a78 78 0 0 0-.222-4.202c-.183-2.705-.699-5.231-1.319-7.5a23 23 0 0 0-.841-2.51c1.215 8.077 1.715 16.123 1.81 24.16l.119-.935c.159-1.481.246-2.939.326-4.382l.016-.218c.008-.257.024-.514.031-.772v-.015zm-26.726 83.13.008-.015-.611-.351zM246.31 42.671c-.612-2.401-.366-5.177-.167-7.539.032-.405.071-.803.095-1.185.183-2.386 1.382-3.96 3.144-4.787 1.715-.803 3.875-.857 5.995-.429 2.731.554 5.407 2.846 7.202 5.59 1.802 2.752 2.85 6.16 2.064 9.067l-.048.172-.127.132c-2.89 2.978-7.789 6.003-12.727 4.53-1.612-.476-2.819-1.24-3.708-2.214-.882-.967-1.414-2.12-1.723-3.337m-13.435-17.939c-.349-1.076-.151-2.245.254-3.329l.588.21.071.024-.667-.234c.437-1.177 1.215-1.949 2.223-2.284.977-.328 2.073-.21 3.113.163 1.088.383 1.945 1.014 2.438 1.903.492.889.563 1.949.254 3.08-.374 1.363-1.096 2.3-2.12 2.782-.993.476-2.16.476-3.311.25l.135-.678-.135.678-.056-.008-.055-.023c-1.469-.538-2.367-1.411-2.732-2.534M34.772 72.148l-.627-.32zm233.611-16.73.294-.18c.19-.584.381-1.17.579-1.746.215-.647.429-1.286.643-1.933.167-1.684.866-2.83 1.969-3.548 1.017-.662 2.295-.92 3.589-1.029 2.097-1.582 4.042-2.011 5.693-1.302 1.644.702 2.732 2.417 3.367 4.436l-.675.203.675-.203c.897 2.893.516 5.216-.905 6.962-1.318 1.622-3.438 2.65-5.892 3.282-.365 1.185-.976 2.222-1.874 2.9-1.024.772-2.326 1.022-3.787.617a5.7 5.7 0 0 1-.961-.367c.223.328.445.663.667.99a95 95 0 0 1 1.509 2.417c.278.46.564.912.849 1.372-.976-.343-1.484.312-1.945.904-.175.227-.341.445-.524.593-.572-1.341-1.159-2.69-1.739-4.038v-.032c-.619-1.356-1.238-2.705-1.858-4.07-1.215-2.767-2.628-5.44-4.057-8.146.278.374.556.748.842 1.122 1.437 1.91 2.858 3.82 4.184 5.8-.087-.63-.095-1.27-.095-1.847 0-1.045-.008-1.91-.31-2.604zm1.389-1.762h.008l.143.047h-.008z"/></mask><g mask="url(#mask0_1785:34523)"><path fill="#fff" d="M0 0h285v269.449H0z"/><path fill="#E1F2F0" d="M142.5 269.449c78.701 0 142.5-60.318 142.5-134.724C285 60.318 221.201 0 142.5 0S0 60.318 0 134.725s63.8 134.724 142.5 134.724"/><path fill="#BAE2DD" d="m68.991 147.714 182.899 28.617-20.713 93.118H0V0zM184.831 0l9.221 81.23L285 109.366V0z"/><path fill="#2B8D83" d="M173.095 199.892h-45.461l-3.383 12.612a59.75 59.75 0 0 0-1.4 24.255l4.841 32.69h48.379l3.261-25.887a81.64 81.64 0 0 0-3.994-37.283z"/><path fill="#B7785C" d="m128.668 220.049 5.658 5.615c-1.84 3.61-4.812 6.602-8.508 8.563l-.294.155-3.29-4.823z"/><path stroke="#339F94" stroke-linecap="round" stroke-linejoin="round" stroke-miterlimit="10" stroke-width="1.301" d="m138.472 204.663-3.328 16.864c-.993 5.036-3.99 9.522-8.374 12.537l-3.915 2.691M169.784 200.292l9.451 22.194M138.472 204.663a198 198 0 0 0-.968 53.077l1.366 11.709M169.784 200.292l1.995 5.607c5.289 14.855 6.773 30.681 4.33 46.182l-2.733 17.368"/><path stroke="#3D200D" stroke-linecap="round" stroke-linejoin="round" stroke-miterlimit="10" stroke-width="1.301" d="m159.276 269.449.952-36.629 4.396-2.081"/><path fill="#277A71" d="M157.424 152.159a72.8 72.8 0 0 0 21.882-6.617l9.254-4.498 3.177-27.586 10.914-.638 3.889 31.291c.537 4.312-1.454 8.552-5.193 11.072-8.713 5.868-18.411 10.302-28.68 13.127l-11.182 3.075z"/><path stroke="#3D200D" stroke-linecap="round" stroke-linejoin="round" stroke-miterlimit="10" stroke-width="1.871" d="m193.631 104.95-10.406-19.047"/><mask id="mask1_1785:34523" width="19" height="23" x="186" y="91" maskUnits="userSpaceOnUse" style="mask-type:alpha"><path fill="#B7785C" d="m191.737 113.458-3.743-4.05a6.12 6.12 0 0 1-1.643-3.895l-.151-3.471c-.058-1.391.549-2.73 1.656-3.645l1.513-1.253 1.312-3.292c.649-1.637 2.493-2.552 4.287-2.128l5.612 1.323c1.06.25 1.999.828 2.666 1.645l.276.337a4.44 4.44 0 0 1 1.01 2.555l.39 6.645a10.8 10.8 0 0 1-.717 4.561l-1.55 4.026z"/></mask><g mask="url(#mask1_1785:34523)"><path fill="#B7785C" d="m191.737 113.458-3.743-4.05a6.12 6.12 0 0 1-1.643-3.895l-.151-3.471c-.058-1.391.549-2.73 1.656-3.645l1.513-1.253 1.312-3.292c.649-1.637 2.493-2.552 4.287-2.128l5.612 1.323c1.06.25 1.999.828 2.666 1.645l.276.337a4.44 4.44 0 0 1 1.01 2.555l.39 6.645a10.8 10.8 0 0 1-.717 4.561l-1.55 4.026z"/><path stroke="#B1694C" stroke-linecap="round" stroke-linejoin="round" stroke-miterlimit="10" stroke-width="1.301" d="m189.169 96.93.096-.063c.889-.583 2.113-.31 2.632.586.52.892.294 2.005-.54 2.651l-2.15 1.668M190.488 100.826l6.245 7.683M194.969 91.728l-2.95 8.179 8.08 1.478c1.387.253 2.775-.428 3.349-1.649l1.551-3.288M195.707 99.851l3.215-8.19M199.085 101.067l3.311-8.432"/></g><path fill="url(#paint0_linear_1785:34523)" d="m116.552 199.175-6.811-35.881 14.296-8.408 19.745-2.992 13.642.266 9.439 10.675c4.606 5.206 7.028 11.832 6.815 18.615l-.583 18.442-47.222 5.741c-4.43.539-8.529-2.302-9.321-6.458"/><path fill="#6DC4BF" d="m113.982 160.802 5.491 7.025a246.5 246.5 0 0 0 25.704 28.094l6.962 6.519 13.931-1.696-.021-2.35c-.142-16.67-5.783-32.885-16.136-46.381l-6.127-.119v5.548l-19.745 3.182v-5.738z"/><path fill="#339F94" d="m113.982 160.802 5.491 7.025a246.5 246.5 0 0 0 25.704 28.094l6.962 6.519 13.931-1.696-.021-2.35c-.142-16.67-5.783-32.885-16.136-46.381l-6.127-.119v5.548l1.982 3.007c6.048 9.173 10.072 19.408 11.828 30.087l1.81 11.024-2.674-3.745c-9.555-13.397-20.511-25.855-32.691-37.188v-5.737z"/><path fill="#277A71" d="M109.745 163.294c7.251 8.856 9.589 20.459 6.287 31.213l-1.962 6.395 14.598 19.147-6.433 9.51-21.711-17.447c-4.472-3.594-6.907-8.963-6.58-14.503a71.4 71.4 0 0 1 4.506-21.072c2.07-5.492 6.052-10.16 11.295-13.243"/><path fill="#B1694C" d="m143.786 157.441-2.544 7.933-17.205-4.751v-27.432h19.749z"/><path fill="#2B8D83" d="M131.228 91.964c19.078-27.028 28.376-52.83 20.767-57.632-7.609-4.8-29.244 13.218-48.322 40.247-19.078 27.028-28.376 52.83-20.767 57.631s29.244-13.218 48.322-40.246"/><path fill="#9A5F4B" d="m171.004 100.563-13.366-34.715c-7.477-19.428-30.201-29.446-50.746-22.373L93.111 48.22c-20.55 7.069-31.145 28.553-23.663 47.977l13.122 34.086c4.036 10.484 16.5 15.679 27.41 11.42l51.158-19.967c8.755-3.416 13.106-12.752 9.866-21.172"/><path fill="#B7785C" d="M168.17 103.127c5.542-.455 9.551-6.087 8.954-12.58s-5.572-11.388-11.113-10.933c-5.542.455-9.551 6.087-8.955 12.58s5.572 11.388 11.114 10.933"/><path stroke="#3D200D" stroke-linecap="round" stroke-linejoin="round" stroke-miterlimit="10" stroke-width="1.301" d="m168.671 85.574-5.784 8.313M165.778 89.73l5.352 2.231"/><path fill="#B7785C" d="M163.628 84.444c8.655 22.483 1.626 45.545-17.397 52.095-19.028 6.546-42.847-5.9-51.501-28.383-8.655-22.484 2.506-46.968 21.534-53.518s38.705 7.319 47.364 29.806"/><path fill="#B1694C" d="M168.786 98.72c2.034-4.784 1.112-9.64-2.058-10.843-3.171-1.204-7.389 1.698-9.422 6.482s-1.111 9.639 2.059 10.843 7.388-1.698 9.421-6.482M124.501 117.189c1.61-2.849-.984-7.128-5.794-9.557s-10.014-2.089-11.624.76.984 7.128 5.794 9.557 10.014 2.089 11.624-.76"/><path fill="#B7785C" d="M100.517 126.407c4.554-3.019 5.038-9.793 1.081-15.129s-10.858-7.215-15.412-4.196-5.038 9.793-1.081 15.129 10.858 7.215 15.412 4.196"/><path stroke="#3D200D" stroke-linecap="round" stroke-linejoin="round" stroke-miterlimit="10" stroke-width="1.301" d="m88.195 113.263 10.084 2.853M93.238 114.69l-2.582 4.965"/><path fill="#9A5F4B" d="M97.99 69.499c-3.788 7.021-4.438 14.657-1.827 21.44l.667 1.732c1.68 4.363.574 9.376-2.964 13.445L82.127 75.629z"/><path fill="#3D200D" d="M117.329 98.829c.998 2.591 3.228 4.208 4.98 3.602s2.363-3.194 1.366-5.786c-.998-2.591-2.347-2.365-4.103-1.763s-3.24 1.351-2.243 3.947M148.096 88.241c.998 2.592 3.227 4.209 4.979 3.602 1.752-.602 2.364-3.193 1.367-5.785-.998-2.591-2.348-2.366-4.104-1.763-1.747.602-3.239 1.35-2.242 3.946"/><path stroke="#3D200D" stroke-linecap="round" stroke-linejoin="round" stroke-miterlimit="10" stroke-width="1.237" d="m122.355 92.488-5.004 3.507M153.356 81.818l-5.001 3.51"/><path stroke="#3D200D" stroke-linecap="round" stroke-linejoin="round" stroke-miterlimit="10" stroke-width="1.301" d="m136.957 90.154 3.692 8.222 4.254 1.712c2.44.979 2.36 4.276-.121 5.151l-.817.29"/><path fill="#9A5F4B" d="m130.816 53.43-3.621 12.09c-2.607 8.702-7.322 16.71-13.777 23.387-6.287 6.502-8.37 15.707-5.448 24.076l3.935 11.273-3.026-2.1c-6.157-4.272-11.278-9.74-15.013-16.036l-9.74-37.802 37.452-19.916z"/><path fill="#774439" d="m116.307 90.61 9.615-1.604c2.531-.42 2.946-3.69.591-4.668-4.271-1.771-9.263-.773-12.41 2.48-1.551 1.61-.063 4.169 2.204 3.793M153.775 77.716l-8.454 4.617c-2.225 1.216-4.765-1.038-3.625-3.214 2.066-3.954 6.568-6.221 11.19-5.638 2.289.28 2.888 3.146.889 4.235"/><path stroke="#3D200D" stroke-linecap="round" stroke-linejoin="round" stroke-miterlimit="10" stroke-width="1.301" d="m151.298 106.972-1.169 2.559-7.012 5.619M152.987 110.502l-2.858-.971M152.396 113.953l-.171 1.799"/><path fill="#2B8D83" d="m123.233 40.627-10.399-.147c-21.618-.305-40.55 13.647-45.512 33.543-2.904 11.642-.612 23.902 6.333 33.903l1.027 1.478z"/><path fill="#339F94" d="m148.477 33.53-.302.08c.088-.009.176-.02.26-.025z"/><path fill="url(#paint1_linear_1785:34523)" d="M103.669 74.58c14.497-20.537 30.474-35.872 40.646-39.945l-22.461 5.971c-6.148-.903-19.966 11.222-32.31 28.708-12.28 17.396-18.818 34.03-15.695 39.146l6.66 19.844c-1.945-9.288 7.175-31.074 23.16-53.723"/><path fill="#2B8D83" d="m144.314 34.635 3.861-1.026c-1.161.115-2.456.463-3.861 1.026"/><path stroke="#3D200D" stroke-linecap="round" stroke-linejoin="round" stroke-miterlimit="10" stroke-width="1.871" d="m193.632 104.95-2.385-4.371M178.091 88.727c4.34 0 7.858-5.189 7.858-11.59s-3.518-11.59-7.858-11.59-7.859 5.189-7.859 11.59 3.519 11.59 7.859 11.59"/><path stroke="#BAE2DD" stroke-linecap="round" stroke-linejoin="round" stroke-miterlimit="10" stroke-width="2.806" d="M177.006 70.005s-2.796 1.454-2.796 5.282"/><path stroke="#fff" stroke-linecap="round" stroke-linejoin="round" stroke-miterlimit="10" stroke-width="14.032" d="M51.132 189.708c-5.411-5.115-5.411-13.413 0-18.528 7.602-7.188 7.602-18.846 0-26.038s-19.934-7.188-27.54 0c-7.608 7.188-7.603 18.846 0 26.038"/><path fill="#fff" d="M64.783 213.76c4.39 0 7.947-3.364 7.947-7.513s-3.558-7.513-7.947-7.513c-4.388 0-7.946 3.364-7.946 7.513s3.558 7.513 7.946 7.513"/><path stroke="#fff" stroke-linecap="round" stroke-linejoin="round" stroke-miterlimit="10" stroke-width="14.032" d="m207.497 32.409 19.28 27.737"/><path fill="#fff" d="M238.511 80.355c3.472 0 6.287-2.661 6.287-5.944s-2.815-5.943-6.287-5.943-6.286 2.66-6.286 5.943 2.814 5.944 6.286 5.944"/></g><defs><linearGradient id="paint0_linear_1785:34523" x1="152.564" x2="133.523" y1="206.956" y2="151.622" gradientUnits="userSpaceOnUse"><stop stop-color="#339F94"/><stop offset=".5" stop-color="#277A71"/></linearGradient><linearGradient id="paint1_linear_1785:34523" x1="73.075" x2="144.316" y1="81.47" y2="81.47" gradientUnits="userSpaceOnUse"><stop stop-color="#2B8D83"/><stop offset=".3" stop-color="#339F94"/></linearGradient></defs></svg>